<?xml version="1.0" standalone="no"?><svg xmlns="http://www.w3.org/2000/svg" viewBox="0 0 1440 320"><path fill="#a2d9ff" fill-opacity="1" d="M0,192L18.5,160C36.9,128,74,64,111,85.3C147.7,107,185,213,222,218.7C258.5,224,295,128,332,96C369.2,64,406,96,443,133.3C480,171,517,213,554,234.7C590.8,256,628,256,665,240C701.5,224,738,192,775,149.3C812.3,107,849,53,886,32C923.1,11,960,21,997,64C1033.8,107,1071,181,1108,197.3C1144.6,213,1182,171,1218,133.3C1255.4,96,1292,64,1329,74.7C1366.2,85,1403,139,1422,165.3L1440,192L1440,320L1421.5,320C1403.1,320,1366,320,1329,320C1292.3,320,1255,320,1218,320C1181.5,320,1145,320,1108,320C1070.8,320,1034,320,997,320C960,320,923,320,886,320C849.2,320,812,320,775,320C738.5,320,702,320,665,320C627.7,320,591,320,554,320C516.9,320,480,320,443,320C406.2,320,369,320,332,320C295.4,320,258,320,222,320C184.6,320,148,320,111,320C73.8,320,37,320,18,320L0,320Z"></path></svg>