<?xml version="1.0" standalone="no"?><svg xmlns="http://www.w3.org/2000/svg" viewBox="0 0 1440 320"><path fill="#F0F8FF" fill-opacity="1" d="M0,192L17.1,165.3C34.3,139,69,85,103,90.7C137.1,96,171,160,206,181.3C240,203,274,181,309,192C342.9,203,377,245,411,272C445.7,299,480,309,514,272C548.6,235,583,149,617,128C651.4,107,686,149,720,192C754.3,235,789,277,823,272C857.1,267,891,213,926,208C960,203,994,245,1029,229.3C1062.9,213,1097,139,1131,128C1165.7,117,1200,171,1234,202.7C1268.6,235,1303,245,1337,240C1371.4,235,1406,213,1423,202.7L1440,192L1440,0L1422.9,0C1405.7,0,1371,0,1337,0C1302.9,0,1269,0,1234,0C1200,0,1166,0,1131,0C1097.1,0,1063,0,1029,0C994.3,0,960,0,926,0C891.4,0,857,0,823,0C788.6,0,754,0,720,0C685.7,0,651,0,617,0C582.9,0,549,0,514,0C480,0,446,0,411,0C377.1,0,343,0,309,0C274.3,0,240,0,206,0C171.4,0,137,0,103,0C68.6,0,34,0,17,0L0,0Z"></path></svg>